<svg width="524" height="99" viewBox="0 0 524 99" fill="none" xmlns="http://www.w3.org/2000/svg">
<g clip-path="url(#clip0_1_2)">
<path d="M40.4465 0.743988C44.7132 0.743988 48.8092 1.46932 52.7345 2.91999C56.7452 4.28532 60.3292 6.16265 63.4865 8.55198C66.6438 10.9413 69.2465 13.7147 71.2945 16.872C73.3425 20.0293 74.6225 23.4 75.1345 26.984C75.3052 27.752 75.3052 28.264 75.1345 28.52C75.0492 28.776 74.7505 28.904 74.2385 28.904L64.6385 29.672C64.2118 29.7573 63.9132 29.672 63.7425 29.416C63.5718 29.16 63.4438 28.8187 63.3585 28.392C62.1638 22.9307 59.5612 18.536 55.5505 15.208C51.6252 11.7947 46.7185 10.088 40.8305 10.088C31.9558 10.088 25.1292 13.3733 20.3505 19.944C15.5718 26.5147 13.1825 36.4133 13.1825 49.64C13.1825 62.44 15.5292 72.1253 20.2225 78.696C24.9158 85.2667 31.9985 88.552 41.4705 88.552C47.5292 88.552 52.5638 87.1013 56.5745 84.2C60.6705 81.2987 63.9558 76.648 66.4305 70.248C66.6865 69.736 67.1985 69.5653 67.9665 69.736L75.5185 71.528C75.7745 71.6133 75.9878 71.784 76.1585 72.04C76.3292 72.296 76.3292 72.7227 76.1585 73.32C75.4758 75.7947 74.4092 78.2267 72.9585 80.616C71.5932 83.0053 69.8865 85.2667 67.8385 87.4C65.7905 89.448 63.4012 91.3253 60.6705 93.032C57.9398 94.6533 54.9105 95.9333 51.5825 96.872C48.3398 97.8107 44.7985 98.28 40.9585 98.28C32.5105 98.28 25.2145 96.3173 19.0705 92.392C13.0118 88.4667 8.36118 82.8347 5.11851 75.496C1.96118 68.1573 0.382507 59.4533 0.382507 49.384C0.382507 39.3147 1.96118 30.6533 5.11851 23.4C8.36118 16.0613 12.9692 10.472 18.9425 6.63199C25.0012 2.70665 32.1692 0.743988 40.4465 0.743988ZM131.459 98.28C123.096 98.28 115.843 96.4027 109.699 92.648C103.64 88.8933 98.9892 83.432 95.7465 76.264C92.5038 69.0107 90.8825 60.2213 90.8825 49.896C90.8825 39.4853 92.5465 30.6107 95.8745 23.272C99.2025 15.9333 103.896 10.344 109.955 6.50399C116.013 2.66399 123.224 0.743988 131.587 0.743988C139.949 0.743988 147.117 2.66399 153.09 6.50399C159.149 10.344 163.8 15.8907 167.043 23.144C170.371 30.3973 172.035 39.272 172.035 49.768C172.035 60.0933 170.413 68.8827 167.171 76.136C163.928 83.304 159.235 88.808 153.09 92.648C147.032 96.4027 139.821 98.28 131.459 98.28ZM131.715 88.936C140.931 88.936 147.8 85.7787 152.323 79.464C156.931 73.064 159.235 63.208 159.235 49.896C159.235 36.328 156.888 26.3013 152.195 19.816C147.587 13.3307 140.717 10.088 131.587 10.088C122.371 10.088 115.416 13.3733 110.723 19.944C106.029 26.4293 103.683 36.4133 103.683 49.896C103.683 63.1227 106.029 72.936 110.723 79.336C115.416 85.736 122.413 88.936 131.715 88.936Z" fill="#FF2E63"/>
<path d="M187.353 97C186.841 97 186.457 96.8293 186.201 96.488C186.03 96.0613 186.03 95.5067 186.201 94.824L219.353 3.81598C219.609 3.21865 219.907 2.79199 220.249 2.53599C220.59 2.19465 221.145 2.02398 221.913 2.02398H231.897C233.433 2.02398 234.414 2.66398 234.841 3.94398L267.609 94.824C267.779 95.336 267.737 95.848 267.481 96.36C267.31 96.7867 266.926 97 266.329 97H257.241C256.217 97 255.534 96.5733 255.193 95.72L246.361 70.888C246.19 70.5467 246.019 70.2907 245.849 70.12C245.678 69.9493 245.337 69.864 244.825 69.864H207.577C206.809 69.864 206.297 70.2053 206.041 70.888L196.953 95.848C196.867 96.1893 196.654 96.488 196.312 96.744C196.057 96.9147 195.63 97 195.033 97H187.353ZM241.497 60.136C242.521 60.136 242.862 59.5813 242.521 58.472L227.161 16.36C226.819 15.592 226.478 15.208 226.137 15.208C225.881 15.208 225.625 15.592 225.369 16.36L209.753 58.728C209.326 59.6667 209.582 60.136 210.521 60.136H241.497ZM347.429 65.384C347.429 72.9787 346.106 79.208 343.461 84.072C340.901 88.936 337.061 92.52 331.941 94.824C326.821 97.128 320.591 98.28 313.253 98.28C305.231 98.28 298.703 97 293.669 94.44C288.634 91.88 284.922 87.9973 282.533 82.792C280.143 77.5867 278.949 71.0587 278.949 63.208V3.81598C278.949 2.62132 279.461 2.02398 280.485 2.02398H289.701C290.725 2.02398 291.237 2.57865 291.237 3.68799V65.896C291.237 73.6613 293.157 79.4213 296.997 83.176C300.837 86.9307 306.511 88.808 314.021 88.808C318.97 88.808 323.151 87.9973 326.565 86.376C330.063 84.6693 332.666 82.1093 334.373 78.696C336.165 75.2827 337.061 70.888 337.061 65.512V3.68799C337.061 2.57865 337.53 2.02398 338.469 2.02398H346.021C346.959 2.02398 347.429 2.53599 347.429 3.55999V65.384ZM363.939 3.43199C363.939 3.00532 364.024 2.66398 364.195 2.40799C364.451 2.15199 364.877 2.02398 365.475 2.02398H434.339C434.851 2.02398 435.235 2.15199 435.491 2.40799C435.747 2.66398 435.875 3.00532 435.875 3.43199V10.088C435.875 10.9413 435.363 11.368 434.339 11.368H408.355C407.416 11.368 406.947 11.7947 406.947 12.648V95.336C406.947 96.4453 406.435 97 405.411 97H396.194C395.171 97 394.659 96.4453 394.659 95.336V12.776C394.659 11.8373 394.232 11.368 393.379 11.368H365.475C364.451 11.368 363.939 10.9413 363.939 10.088V3.43199ZM483.084 98.28C474.721 98.28 467.468 96.4027 461.324 92.648C455.265 88.8933 450.614 83.432 447.372 76.264C444.129 69.0107 442.508 60.2213 442.508 49.896C442.508 39.4853 444.172 30.6107 447.5 23.272C450.828 15.9333 455.521 10.344 461.58 6.50399C467.638 2.66399 474.849 0.743988 483.212 0.743988C491.574 0.743988 498.742 2.66399 504.715 6.50399C510.774 10.344 515.425 15.8907 518.668 23.144C521.996 30.3973 523.66 39.272 523.66 49.768C523.66 60.0933 522.038 68.8827 518.796 76.136C515.553 83.304 510.86 88.808 504.715 92.648C498.657 96.4027 491.446 98.28 483.084 98.28ZM483.34 88.936C492.556 88.936 499.425 85.7787 503.948 79.464C508.556 73.064 510.86 63.208 510.86 49.896C510.86 36.328 508.513 26.3013 503.82 19.816C499.212 13.3307 492.342 10.088 483.212 10.088C473.996 10.088 467.041 13.3733 462.348 19.944C457.654 26.4293 455.308 36.4133 455.308 49.896C455.308 63.1227 457.654 72.936 462.348 79.336C467.041 85.736 474.038 88.936 483.34 88.936Z" fill="#4285F4"/>
</g>
<defs>
<clipPath id="clip0_1_2">
<rect width="524" height="99" fill="white"/>
</clipPath>
</defs>
</svg>
